<?xml version="1.0" encoding="UTF-8"?>
<!-- Created with OmniCanvas (omnicanvas.readthedocs.io) -->
<svg xmlns="http://www.w3.org/2000/svg" width="700" height="700">

<rect x="161.0" y="35.0" width="126.5" height="126.5" style="fill:#30FF00;stroke:#000000;stroke-width:0.0;" />
<rect x="287.0" y="35.0" width="126.5" height="126.5" style="fill:#FFFFFF;stroke:#000000;stroke-width:0.0;" />
<rect x="413.0" y="35.0" width="126.5" height="126.5" style="fill:#4FFF00;stroke:#000000;stroke-width:0.0;" />
<rect x="539.0" y="35.0" width="126.5" height="126.5" style="fill:#FFFFFF;stroke:#000000;stroke-width:0.0;" />
<rect x="287.0" y="161.0" width="126.5" height="126.5" style="fill:#FFFFFF;stroke:#000000;stroke-width:0.0;" />
<rect x="413.0" y="161.0" width="126.5" height="126.5" style="fill:#30FF00;stroke:#000000;stroke-width:0.0;" />
<rect x="539.0" y="161.0" width="126.5" height="126.5" style="fill:#FFFFFF;stroke:#000000;stroke-width:0.0;" />
<rect x="413.0" y="287.0" width="126.5" height="126.5" style="fill:#FFFFFF;stroke:#000000;stroke-width:0.0;" />
<rect x="539.0" y="287.0" width="126.5" height="126.5" style="fill:#FFFFFF;stroke:#000000;stroke-width:0.0;" />
<rect x="539.0" y="413.0" width="126.5" height="126.5" style="fill:#FFFFFF;stroke:#000000;stroke-width:0.0;" />
<line x1="35.0" y1="35.0" x2="35.0" y2="665.0" style="stroke:#000000;" />
<line x1="35.0" y1="35.0" x2="665.0" y2="35.0" style="stroke:#000000;" />
<text x="224.0" y="26.2" text-anchor="middle" alignment-baseline="baseline" style="font-size:18.0;fill:#000000;stroke:#000000;stroke-width:0.0;">1</text>
<text x="673.8" y="98.0" text-anchor="start" alignment-baseline="middle" style="font-size:18.0;fill:#000000;stroke:#000000;stroke-width:0.0;">1</text>
<line x1="161.0" y1="35.0" x2="161.0" y2="665.0" style="stroke:#000000;" />
<line x1="35.0" y1="161.0" x2="665.0" y2="161.0" style="stroke:#000000;" />
<text x="350.0" y="26.2" text-anchor="middle" alignment-baseline="baseline" style="font-size:18.0;fill:#000000;stroke:#000000;stroke-width:0.0;">2</text>
<text x="673.8" y="224.0" text-anchor="start" alignment-baseline="middle" style="font-size:18.0;fill:#000000;stroke:#000000;stroke-width:0.0;">2</text>
<line x1="287.0" y1="35.0" x2="287.0" y2="665.0" style="stroke:#000000;" />
<line x1="35.0" y1="287.0" x2="665.0" y2="287.0" style="stroke:#000000;" />
<text x="476.0" y="26.2" text-anchor="middle" alignment-baseline="baseline" style="font-size:18.0;fill:#000000;stroke:#000000;stroke-width:0.0;">3</text>
<text x="673.8" y="350.0" text-anchor="start" alignment-baseline="middle" style="font-size:18.0;fill:#000000;stroke:#000000;stroke-width:0.0;">3</text>
<line x1="413.0" y1="35.0" x2="413.0" y2="665.0" style="stroke:#000000;" />
<line x1="35.0" y1="413.0" x2="665.0" y2="413.0" style="stroke:#000000;" />
<text x="602.0" y="26.2" text-anchor="middle" alignment-baseline="baseline" style="font-size:18.0;fill:#000000;stroke:#000000;stroke-width:0.0;">4</text>
<text x="673.8" y="476.0" text-anchor="start" alignment-baseline="middle" style="font-size:18.0;fill:#000000;stroke:#000000;stroke-width:0.0;">4</text>
<line x1="539.0" y1="35.0" x2="539.0" y2="665.0" style="stroke:#000000;" />
<line x1="35.0" y1="539.0" x2="665.0" y2="539.0" style="stroke:#000000;" />
<line x1="665.0" y1="35.0" x2="665.0" y2="665.0" style="stroke:#000000;" />
<line x1="35.0" y1="665.0" x2="665.0" y2="665.0" style="stroke:#000000;" />
<polygon points="35.0,35.0, 35.0,665.0, 665.0,665.0" style="fill:#FFFFFF;stroke:#FFFFFF;stroke-width:2.0;" />
<polygon points="35.0,35.0, 665.0,35.0, 665.0,665.0" style="fill:#FFFFFF;fill-opacity:0.000;stroke:#000000;stroke-width:2.0;" />
<rect x="343.0" y="-100.5" width="4.0" height="891.0" style="fill:#A9FF00;stroke:#000000;stroke-width:0.0;" transform="rotate(315.0 355.0 355.0)" />
</svg>