<?xml version="1.0" encoding="UTF-8"?>
<!-- Created with OmniCanvas (omnicanvas.readthedocs.io) -->
<svg xmlns="http://www.w3.org/2000/svg" width="700" height="700">

<rect x="161.0" y="35.0" width="126.5" height="126.5" style="fill:#30FF00;stroke:#000000;stroke-width:0.0;" />
<rect x="287.0" y="35.0" width="126.5" height="126.5" style="fill:#FFFFFF;stroke:#000000;stroke-width:0.0;" />
<rect x="413.0" y="35.0" width="126.5" height="126.5" style="fill:#4FFF00;stroke:#000000;stroke-width:0.0;" />
<rect x="539.0" y="35.0" width="126.5" height="126.5" style="fill:#FFFFFF;stroke:#000000;stroke-width:0.0;" />
<rect x="287.0" y="161.0" width="126.5" height="126.5" style="fill:#FFFFFF;stroke:#000000;stroke-width:0.0;" />
<rect x="413.0" y="161.0" width="126.5" height="126.5" style="fill:#30FF00;stroke:#000000;stroke-width:0.0;" />
<rect x="539.0" y="161.0" width="126.5" height="126.5" style="fill:#FFFFFF;stroke:#000000;stroke-width:0.0;" />
<rect x="413.0" y="287.0" width="126.5" height="126.5" style="fill:#FFFFFF;stroke:#000000;stroke-width:0.0;" />
<rect x="539.0" y="287.0" width="126.5" height="126.5" style="fill:#FFFFFF;stroke:#000000;stroke-width:0.0;" />
<rect x="539.0" y="413.0" width="126.5" height="126.5" style="fill:#FFFFFF;stroke:#000000;stroke-width:0.0;" />
<line x1="35.0" y1="35.0" x2="35.0" y2="665.0" style="stroke:#000000;" />
<line x1="35.0" y1="35.0" x2="665.0" y2="35.0" style="stroke:#000000;" />
<text x="224.0" y="26.2" text-anchor="middle" alignment-baseline="baseline" style="font-size:18.0;fill:#000000;stroke:#000000;stroke-width:0.0;">1</text>
<text x="673.8" y="98.0" text-anchor="start" alignment-baseline="middle" style="font-size:18.0;fill:#000000;stroke:#000000;stroke-width:0.0;">1</text>
<line x1="161.0" y1="35.0" x2="161.0" y2="665.0" style="stroke:#000000;" />
<line x1="35.0" y1="161.0" x2="665.0" y2="161.0" style="stroke:#000000;" />
<text x="350.0" y="26.2" text-anchor="middle" alignment-baseline="baseline" style="font-size:18.0;fill:#000000;stroke:#000000;stroke-width:0.0;">2</text>
<text x="673.8" y="224.0" text-anchor="start" alignment-baseline="middle" style="font-size:18.0;fill:#000000;stroke:#000000;stroke-width:0.0;">2</text>
<line x1="287.0" y1="35.0" x2="287.0" y2="665.0" style="stroke:#000000;" />
<line x1="35.0" y1="287.0" x2="665.0" y2="287.0" style="stroke:#000000;" />
<text x="476.0" y="26.2" text-anchor="middle" alignment-baseline="baseline" style="font-size:18.0;fill:#000000;stroke:#000000;stroke-width:0.0;">3</text>
<text x="673.8" y="350.0" text-anchor="start" alignment-baseline="middle" style="font-size:18.0;fill:#000000;stroke:#000000;stroke-width:0.0;">3</text>
<line x1="413.0" y1="35.0" x2="413.0" y2="665.0" style="stroke:#000000;" />
<line x1="35.0" y1="413.0" x2="665.0" y2="413.0" style="stroke:#000000;" />
<text x="602.0" y="26.2" text-anchor="middle" alignment-baseline="baseline" style="font-size:18.0;fill:#000000;stroke:#000000;stroke-width:0.0;">4</text>
<text x="673.8" y="476.0" text-anchor="start" alignment-baseline="middle" style="font-size:18.0;fill:#000000;stroke:#000000;stroke-width:0.0;">4</text>
<line x1="539.0" y1="35.0" x2="539.0" y2="665.0" style="stroke:#000000;" />
<line x1="35.0" y1="539.0" x2="665.0" y2="539.0" style="stroke:#000000;" />
<line x1="665.0" y1="35.0" x2="665.0" y2="665.0" style="stroke:#000000;" />
<line x1="35.0" y1="665.0" x2="665.0" y2="665.0" style="stroke:#000000;" />
<polygon points="35.0,35.0, 35.0,665.0, 665.0,665.0" style="fill:#FFFFFF;stroke:#FFFFFF;stroke-width:2.0;" />
<polygon points="35.0,35.0, 665.0,35.0, 665.0,665.0" style="fill:#FFFFFF;fill-opacity:0.000;stroke:#000000;stroke-width:2.0;" />
<rect x="343.0" y="-100.5" width="4.0" height="891.0" style="fill:#A9FF00;stroke:#000000;stroke-width:0.0;" transform="rotate(315.0 355.0 355.0)" />
<text x="161.0" y="450.8" text-anchor="middle" alignment-baseline="middle" style="font-size:22.0;fill:#000000;stroke:#000000;stroke-width:0.0;">Distance (&#8491;ngstroms)</text>
<rect x="59.0" y="463.4" width="2.0" height="25.2" style="fill:#74FF00;stroke:#000000;stroke-width:0.0;" />
<rect x="60.0" y="463.4" width="2.0" height="25.2" style="fill:#76FF00;stroke:#000000;stroke-width:0.0;" />
<rect x="61.0" y="463.4" width="2.0" height="25.2" style="fill:#78FF00;stroke:#000000;stroke-width:0.0;" />
<rect x="62.0" y="463.4" width="2.0" height="25.2" style="fill:#7AFF00;stroke:#000000;stroke-width:0.0;" />
<rect x="63.0" y="463.4" width="2.0" height="25.2" style="fill:#7CFF00;stroke:#000000;stroke-width:0.0;" />
<rect x="64.0" y="463.4" width="2.0" height="25.2" style="fill:#7EFF00;stroke:#000000;stroke-width:0.0;" />
<rect x="65.0" y="463.4" width="2.0" height="25.2" style="fill:#80FF00;stroke:#000000;stroke-width:0.0;" />
<rect x="66.0" y="463.4" width="2.0" height="25.2" style="fill:#82FF00;stroke:#000000;stroke-width:0.0;" />
<rect x="67.0" y="463.4" width="2.0" height="25.2" style="fill:#84FF00;stroke:#000000;stroke-width:0.0;" />
<rect x="68.0" y="463.4" width="2.0" height="25.2" style="fill:#86FF00;stroke:#000000;stroke-width:0.0;" />
<rect x="69.0" y="463.4" width="2.0" height="25.2" style="fill:#88FF00;stroke:#000000;stroke-width:0.0;" />
<rect x="70.0" y="463.4" width="2.0" height="25.2" style="fill:#8AFF00;stroke:#000000;stroke-width:0.0;" />
<rect x="71.0" y="463.4" width="2.0" height="25.2" style="fill:#8CFF00;stroke:#000000;stroke-width:0.0;" />
<rect x="72.0" y="463.4" width="2.0" height="25.2" style="fill:#8EFF00;stroke:#000000;stroke-width:0.0;" />
<rect x="73.0" y="463.4" width="2.0" height="25.2" style="fill:#90FF00;stroke:#000000;stroke-width:0.0;" />
<rect x="74.0" y="463.4" width="2.0" height="25.2" style="fill:#92FF00;stroke:#000000;stroke-width:0.0;" />
<rect x="75.0" y="463.4" width="2.0" height="25.2" style="fill:#94FF00;stroke:#000000;stroke-width:0.0;" />
<rect x="76.0" y="463.4" width="2.0" height="25.2" style="fill:#95FF00;stroke:#000000;stroke-width:0.0;" />
<rect x="77.0" y="463.4" width="2.0" height="25.2" style="fill:#97FF00;stroke:#000000;stroke-width:0.0;" />
<rect x="78.0" y="463.4" width="2.0" height="25.2" style="fill:#99FF00;stroke:#000000;stroke-width:0.0;" />
<rect x="79.0" y="463.4" width="2.0" height="25.2" style="fill:#9BFF00;stroke:#000000;stroke-width:0.0;" />
<rect x="80.0" y="463.4" width="2.0" height="25.2" style="fill:#9DFF00;stroke:#000000;stroke-width:0.0;" />
<rect x="81.0" y="463.4" width="2.0" height="25.2" style="fill:#9FFF00;stroke:#000000;stroke-width:0.0;" />
<rect x="82.0" y="463.4" width="2.0" height="25.2" style="fill:#A1FF00;stroke:#000000;stroke-width:0.0;" />
<rect x="83.0" y="463.4" width="2.0" height="25.2" style="fill:#A3FF00;stroke:#000000;stroke-width:0.0;" />
<rect x="84.0" y="463.4" width="2.0" height="25.2" style="fill:#A5FF00;stroke:#000000;stroke-width:0.0;" />
<rect x="85.0" y="463.4" width="2.0" height="25.2" style="fill:#A7FF00;stroke:#000000;stroke-width:0.0;" />
<rect x="86.0" y="463.4" width="2.0" height="25.2" style="fill:#A9FF00;stroke:#000000;stroke-width:0.0;" />
<rect x="87.0" y="463.4" width="2.0" height="25.2" style="fill:#ABFF00;stroke:#000000;stroke-width:0.0;" />
<rect x="88.0" y="463.4" width="2.0" height="25.2" style="fill:#ADFF00;stroke:#000000;stroke-width:0.0;" />
<rect x="89.0" y="463.4" width="2.0" height="25.2" style="fill:#AFFF00;stroke:#000000;stroke-width:0.0;" />
<rect x="90.0" y="463.4" width="2.0" height="25.2" style="fill:#B1FF00;stroke:#000000;stroke-width:0.0;" />
<rect x="91.0" y="463.4" width="2.0" height="25.2" style="fill:#B3FF00;stroke:#000000;stroke-width:0.0;" />
<rect x="92.0" y="463.4" width="2.0" height="25.2" style="fill:#B5FF00;stroke:#000000;stroke-width:0.0;" />
<rect x="93.0" y="463.4" width="2.0" height="25.2" style="fill:#B7FF00;stroke:#000000;stroke-width:0.0;" />
<rect x="94.0" y="463.4" width="2.0" height="25.2" style="fill:#B9FF00;stroke:#000000;stroke-width:0.0;" />
<rect x="95.0" y="463.4" width="2.0" height="25.2" style="fill:#BBFF00;stroke:#000000;stroke-width:0.0;" />
<rect x="96.0" y="463.4" width="2.0" height="25.2" style="fill:#BCFF00;stroke:#000000;stroke-width:0.0;" />
<rect x="97.0" y="463.4" width="2.0" height="25.2" style="fill:#BEFF00;stroke:#000000;stroke-width:0.0;" />
<rect x="98.0" y="463.4" width="2.0" height="25.2" style="fill:#C0FF00;stroke:#000000;stroke-width:0.0;" />
<rect x="99.0" y="463.4" width="2.0" height="25.2" style="fill:#C2FF00;stroke:#000000;stroke-width:0.0;" />
<rect x="100.0" y="463.4" width="2.0" height="25.2" style="fill:#C4FF00;stroke:#000000;stroke-width:0.0;" />
<rect x="101.0" y="463.4" width="2.0" height="25.2" style="fill:#C6FF00;stroke:#000000;stroke-width:0.0;" />
<rect x="102.0" y="463.4" width="2.0" height="25.2" style="fill:#C8FF00;stroke:#000000;stroke-width:0.0;" />
<rect x="103.0" y="463.4" width="2.0" height="25.2" style="fill:#CAFF00;stroke:#000000;stroke-width:0.0;" />
<rect x="104.0" y="463.4" width="2.0" height="25.2" style="fill:#CCFF00;stroke:#000000;stroke-width:0.0;" />
<rect x="105.0" y="463.4" width="2.0" height="25.2" style="fill:#CEFF00;stroke:#000000;stroke-width:0.0;" />
<rect x="106.0" y="463.4" width="2.0" height="25.2" style="fill:#D0FF00;stroke:#000000;stroke-width:0.0;" />
<rect x="107.0" y="463.4" width="2.0" height="25.2" style="fill:#D2FF00;stroke:#000000;stroke-width:0.0;" />
<rect x="108.0" y="463.4" width="2.0" height="25.2" style="fill:#D4FF00;stroke:#000000;stroke-width:0.0;" />
<rect x="109.0" y="463.4" width="2.0" height="25.2" style="fill:#D6FF00;stroke:#000000;stroke-width:0.0;" />
<rect x="110.0" y="463.4" width="2.0" height="25.2" style="fill:#D8FF00;stroke:#000000;stroke-width:0.0;" />
<rect x="111.0" y="463.4" width="2.0" height="25.2" style="fill:#DAFF00;stroke:#000000;stroke-width:0.0;" />
<rect x="112.0" y="463.4" width="2.0" height="25.2" style="fill:#DCFF00;stroke:#000000;stroke-width:0.0;" />
<rect x="113.0" y="463.4" width="2.0" height="25.2" style="fill:#DEFF00;stroke:#000000;stroke-width:0.0;" />
<rect x="114.0" y="463.4" width="2.0" height="25.2" style="fill:#E0FF00;stroke:#000000;stroke-width:0.0;" />
<rect x="115.0" y="463.4" width="2.0" height="25.2" style="fill:#E1FF00;stroke:#000000;stroke-width:0.0;" />
<rect x="116.0" y="463.4" width="2.0" height="25.2" style="fill:#E3FF00;stroke:#000000;stroke-width:0.0;" />
<rect x="117.0" y="463.4" width="2.0" height="25.2" style="fill:#E5FF00;stroke:#000000;stroke-width:0.0;" />
<rect x="118.0" y="463.4" width="2.0" height="25.2" style="fill:#E7FF00;stroke:#000000;stroke-width:0.0;" />
<rect x="119.0" y="463.4" width="2.0" height="25.2" style="fill:#E9FF00;stroke:#000000;stroke-width:0.0;" />
<rect x="120.0" y="463.4" width="2.0" height="25.2" style="fill:#EBFF00;stroke:#000000;stroke-width:0.0;" />
<rect x="121.0" y="463.4" width="2.0" height="25.2" style="fill:#EDFF00;stroke:#000000;stroke-width:0.0;" />
<rect x="122.0" y="463.4" width="2.0" height="25.2" style="fill:#EFFF00;stroke:#000000;stroke-width:0.0;" />
<rect x="123.0" y="463.4" width="2.0" height="25.2" style="fill:#F1FF00;stroke:#000000;stroke-width:0.0;" />
<rect x="124.0" y="463.4" width="2.0" height="25.2" style="fill:#F3FF00;stroke:#000000;stroke-width:0.0;" />
<rect x="125.0" y="463.4" width="2.0" height="25.2" style="fill:#F5FF00;stroke:#000000;stroke-width:0.0;" />
<rect x="126.0" y="463.4" width="2.0" height="25.2" style="fill:#F7FF00;stroke:#000000;stroke-width:0.0;" />
<rect x="127.0" y="463.4" width="2.0" height="25.2" style="fill:#F9FF00;stroke:#000000;stroke-width:0.0;" />
<rect x="128.0" y="463.4" width="2.0" height="25.2" style="fill:#FBFF00;stroke:#000000;stroke-width:0.0;" />
<rect x="129.0" y="463.4" width="2.0" height="25.2" style="fill:#FDFF00;stroke:#000000;stroke-width:0.0;" />
<rect x="130.0" y="463.4" width="2.0" height="25.2" style="fill:#FFFE00;stroke:#000000;stroke-width:0.0;" />
<rect x="131.0" y="463.4" width="2.0" height="25.2" style="fill:#FFFC00;stroke:#000000;stroke-width:0.0;" />
<rect x="132.0" y="463.4" width="2.0" height="25.2" style="fill:#FFFA00;stroke:#000000;stroke-width:0.0;" />
<rect x="133.0" y="463.4" width="2.0" height="25.2" style="fill:#FFF800;stroke:#000000;stroke-width:0.0;" />
<rect x="134.0" y="463.4" width="2.0" height="25.2" style="fill:#FFF700;stroke:#000000;stroke-width:0.0;" />
<rect x="135.0" y="463.4" width="2.0" height="25.2" style="fill:#FFF500;stroke:#000000;stroke-width:0.0;" />
<rect x="136.0" y="463.4" width="2.0" height="25.2" style="fill:#FFF300;stroke:#000000;stroke-width:0.0;" />
<rect x="137.0" y="463.4" width="2.0" height="25.2" style="fill:#FFF100;stroke:#000000;stroke-width:0.0;" />
<rect x="138.0" y="463.4" width="2.0" height="25.2" style="fill:#FFEF00;stroke:#000000;stroke-width:0.0;" />
<rect x="139.0" y="463.4" width="2.0" height="25.2" style="fill:#FFED00;stroke:#000000;stroke-width:0.0;" />
<rect x="140.0" y="463.4" width="2.0" height="25.2" style="fill:#FFEB00;stroke:#000000;stroke-width:0.0;" />
<rect x="141.0" y="463.4" width="2.0" height="25.2" style="fill:#FFE900;stroke:#000000;stroke-width:0.0;" />
<rect x="142.0" y="463.4" width="2.0" height="25.2" style="fill:#FFE700;stroke:#000000;stroke-width:0.0;" />
<rect x="143.0" y="463.4" width="2.0" height="25.2" style="fill:#FFE500;stroke:#000000;stroke-width:0.0;" />
<rect x="144.0" y="463.4" width="2.0" height="25.2" style="fill:#FFE300;stroke:#000000;stroke-width:0.0;" />
<rect x="145.0" y="463.4" width="2.0" height="25.2" style="fill:#FFE100;stroke:#000000;stroke-width:0.0;" />
<rect x="146.0" y="463.4" width="2.0" height="25.2" style="fill:#FFDF00;stroke:#000000;stroke-width:0.0;" />
<rect x="147.0" y="463.4" width="2.0" height="25.2" style="fill:#FFDD00;stroke:#000000;stroke-width:0.0;" />
<rect x="148.0" y="463.4" width="2.0" height="25.2" style="fill:#FFDB00;stroke:#000000;stroke-width:0.0;" />
<rect x="149.0" y="463.4" width="2.0" height="25.2" style="fill:#FFD900;stroke:#000000;stroke-width:0.0;" />
<rect x="150.0" y="463.4" width="2.0" height="25.2" style="fill:#FFD700;stroke:#000000;stroke-width:0.0;" />
<rect x="151.0" y="463.4" width="2.0" height="25.2" style="fill:#FFD500;stroke:#000000;stroke-width:0.0;" />
<rect x="152.0" y="463.4" width="2.0" height="25.2" style="fill:#FFD300;stroke:#000000;stroke-width:0.0;" />
<rect x="153.0" y="463.4" width="2.0" height="25.2" style="fill:#FFD200;stroke:#000000;stroke-width:0.0;" />
<rect x="154.0" y="463.4" width="2.0" height="25.2" style="fill:#FFD000;stroke:#000000;stroke-width:0.0;" />
<rect x="155.0" y="463.4" width="2.0" height="25.2" style="fill:#FFCE00;stroke:#000000;stroke-width:0.0;" />
<rect x="156.0" y="463.4" width="2.0" height="25.2" style="fill:#FFCC00;stroke:#000000;stroke-width:0.0;" />
<rect x="157.0" y="463.4" width="2.0" height="25.2" style="fill:#FFCA00;stroke:#000000;stroke-width:0.0;" />
<rect x="158.0" y="463.4" width="2.0" height="25.2" style="fill:#FFC800;stroke:#000000;stroke-width:0.0;" />
<rect x="159.0" y="463.4" width="2.0" height="25.2" style="fill:#FFC600;stroke:#000000;stroke-width:0.0;" />
<rect x="160.0" y="463.4" width="2.0" height="25.2" style="fill:#FFC400;stroke:#000000;stroke-width:0.0;" />
<rect x="161.0" y="463.4" width="2.0" height="25.2" style="fill:#FFC200;stroke:#000000;stroke-width:0.0;" />
<rect x="162.0" y="463.4" width="2.0" height="25.2" style="fill:#FFC000;stroke:#000000;stroke-width:0.0;" />
<rect x="163.0" y="463.4" width="2.0" height="25.2" style="fill:#FFBE00;stroke:#000000;stroke-width:0.0;" />
<rect x="164.0" y="463.4" width="2.0" height="25.2" style="fill:#FFBC00;stroke:#000000;stroke-width:0.0;" />
<rect x="165.0" y="463.4" width="2.0" height="25.2" style="fill:#FFBA00;stroke:#000000;stroke-width:0.0;" />
<rect x="166.0" y="463.4" width="2.0" height="25.2" style="fill:#FFB800;stroke:#000000;stroke-width:0.0;" />
<rect x="167.0" y="463.4" width="2.0" height="25.2" style="fill:#FFB600;stroke:#000000;stroke-width:0.0;" />
<rect x="168.0" y="463.4" width="2.0" height="25.2" style="fill:#FFB400;stroke:#000000;stroke-width:0.0;" />
<rect x="169.0" y="463.4" width="2.0" height="25.2" style="fill:#FFB200;stroke:#000000;stroke-width:0.0;" />
<rect x="170.0" y="463.4" width="2.0" height="25.2" style="fill:#FFB000;stroke:#000000;stroke-width:0.0;" />
<rect x="171.0" y="463.4" width="2.0" height="25.2" style="fill:#FFAE00;stroke:#000000;stroke-width:0.0;" />
<rect x="172.0" y="463.4" width="2.0" height="25.2" style="fill:#FFAC00;stroke:#000000;stroke-width:0.0;" />
<rect x="173.0" y="463.4" width="2.0" height="25.2" style="fill:#FFAB00;stroke:#000000;stroke-width:0.0;" />
<rect x="174.0" y="463.4" width="2.0" height="25.2" style="fill:#FFA900;stroke:#000000;stroke-width:0.0;" />
<rect x="175.0" y="463.4" width="2.0" height="25.2" style="fill:#FFA700;stroke:#000000;stroke-width:0.0;" />
<rect x="176.0" y="463.4" width="2.0" height="25.2" style="fill:#FFA500;stroke:#000000;stroke-width:0.0;" />
<rect x="177.0" y="463.4" width="2.0" height="25.2" style="fill:#FFA300;stroke:#000000;stroke-width:0.0;" />
<rect x="178.0" y="463.4" width="2.0" height="25.2" style="fill:#FFA100;stroke:#000000;stroke-width:0.0;" />
<rect x="179.0" y="463.4" width="2.0" height="25.2" style="fill:#FF9F00;stroke:#000000;stroke-width:0.0;" />
<rect x="180.0" y="463.4" width="2.0" height="25.2" style="fill:#FF9D00;stroke:#000000;stroke-width:0.0;" />
<rect x="181.0" y="463.4" width="2.0" height="25.2" style="fill:#FF9B00;stroke:#000000;stroke-width:0.0;" />
<rect x="182.0" y="463.4" width="2.0" height="25.2" style="fill:#FF9900;stroke:#000000;stroke-width:0.0;" />
<rect x="183.0" y="463.4" width="2.0" height="25.2" style="fill:#FF9700;stroke:#000000;stroke-width:0.0;" />
<rect x="184.0" y="463.4" width="2.0" height="25.2" style="fill:#FF9500;stroke:#000000;stroke-width:0.0;" />
<rect x="185.0" y="463.4" width="2.0" height="25.2" style="fill:#FF9300;stroke:#000000;stroke-width:0.0;" />
<rect x="186.0" y="463.4" width="2.0" height="25.2" style="fill:#FF9100;stroke:#000000;stroke-width:0.0;" />
<rect x="187.0" y="463.4" width="2.0" height="25.2" style="fill:#FF8F00;stroke:#000000;stroke-width:0.0;" />
<rect x="188.0" y="463.4" width="2.0" height="25.2" style="fill:#FF8D00;stroke:#000000;stroke-width:0.0;" />
<rect x="189.0" y="463.4" width="2.0" height="25.2" style="fill:#FF8B00;stroke:#000000;stroke-width:0.0;" />
<rect x="190.0" y="463.4" width="2.0" height="25.2" style="fill:#FF8900;stroke:#000000;stroke-width:0.0;" />
<rect x="191.0" y="463.4" width="2.0" height="25.2" style="fill:#FF8700;stroke:#000000;stroke-width:0.0;" />
<rect x="192.0" y="463.4" width="2.0" height="25.2" style="fill:#FF8600;stroke:#000000;stroke-width:0.0;" />
<rect x="193.0" y="463.4" width="2.0" height="25.2" style="fill:#FF8400;stroke:#000000;stroke-width:0.0;" />
<rect x="194.0" y="463.4" width="2.0" height="25.2" style="fill:#FF8200;stroke:#000000;stroke-width:0.0;" />
<rect x="195.0" y="463.4" width="2.0" height="25.2" style="fill:#FF8000;stroke:#000000;stroke-width:0.0;" />
<rect x="196.0" y="463.4" width="2.0" height="25.2" style="fill:#FF7E00;stroke:#000000;stroke-width:0.0;" />
<rect x="197.0" y="463.4" width="2.0" height="25.2" style="fill:#FF7C00;stroke:#000000;stroke-width:0.0;" />
<rect x="198.0" y="463.4" width="2.0" height="25.2" style="fill:#FF7A00;stroke:#000000;stroke-width:0.0;" />
<rect x="199.0" y="463.4" width="2.0" height="25.2" style="fill:#FF7800;stroke:#000000;stroke-width:0.0;" />
<rect x="200.0" y="463.4" width="2.0" height="25.2" style="fill:#FF7600;stroke:#000000;stroke-width:0.0;" />
<rect x="201.0" y="463.4" width="2.0" height="25.2" style="fill:#FF7400;stroke:#000000;stroke-width:0.0;" />
<rect x="202.0" y="463.4" width="2.0" height="25.2" style="fill:#FF7200;stroke:#000000;stroke-width:0.0;" />
<rect x="203.0" y="463.4" width="2.0" height="25.2" style="fill:#FF7000;stroke:#000000;stroke-width:0.0;" />
<rect x="204.0" y="463.4" width="2.0" height="25.2" style="fill:#FF6E00;stroke:#000000;stroke-width:0.0;" />
<rect x="205.0" y="463.4" width="2.0" height="25.2" style="fill:#FF6C00;stroke:#000000;stroke-width:0.0;" />
<rect x="206.0" y="463.4" width="2.0" height="25.2" style="fill:#FF6A00;stroke:#000000;stroke-width:0.0;" />
<rect x="207.0" y="463.4" width="2.0" height="25.2" style="fill:#FF6800;stroke:#000000;stroke-width:0.0;" />
<rect x="208.0" y="463.4" width="2.0" height="25.2" style="fill:#FF6600;stroke:#000000;stroke-width:0.0;" />
<rect x="209.0" y="463.4" width="2.0" height="25.2" style="fill:#FF6400;stroke:#000000;stroke-width:0.0;" />
<rect x="210.0" y="463.4" width="2.0" height="25.2" style="fill:#FF6200;stroke:#000000;stroke-width:0.0;" />
<rect x="211.0" y="463.4" width="2.0" height="25.2" style="fill:#FF6100;stroke:#000000;stroke-width:0.0;" />
<rect x="212.0" y="463.4" width="2.0" height="25.2" style="fill:#FF5F00;stroke:#000000;stroke-width:0.0;" />
<rect x="213.0" y="463.4" width="2.0" height="25.2" style="fill:#FF5D00;stroke:#000000;stroke-width:0.0;" />
<rect x="214.0" y="463.4" width="2.0" height="25.2" style="fill:#FF5B00;stroke:#000000;stroke-width:0.0;" />
<rect x="215.0" y="463.4" width="2.0" height="25.2" style="fill:#FF5900;stroke:#000000;stroke-width:0.0;" />
<rect x="216.0" y="463.4" width="2.0" height="25.2" style="fill:#FF5700;stroke:#000000;stroke-width:0.0;" />
<rect x="217.0" y="463.4" width="2.0" height="25.2" style="fill:#FF5500;stroke:#000000;stroke-width:0.0;" />
<rect x="218.0" y="463.4" width="2.0" height="25.2" style="fill:#FF5300;stroke:#000000;stroke-width:0.0;" />
<rect x="219.0" y="463.4" width="2.0" height="25.2" style="fill:#FF5100;stroke:#000000;stroke-width:0.0;" />
<rect x="220.0" y="463.4" width="2.0" height="25.2" style="fill:#FF4F00;stroke:#000000;stroke-width:0.0;" />
<rect x="221.0" y="463.4" width="2.0" height="25.2" style="fill:#FF4D00;stroke:#000000;stroke-width:0.0;" />
<rect x="222.0" y="463.4" width="2.0" height="25.2" style="fill:#FF4B00;stroke:#000000;stroke-width:0.0;" />
<rect x="223.0" y="463.4" width="2.0" height="25.2" style="fill:#FF4900;stroke:#000000;stroke-width:0.0;" />
<rect x="224.0" y="463.4" width="2.0" height="25.2" style="fill:#FF4700;stroke:#000000;stroke-width:0.0;" />
<rect x="225.0" y="463.4" width="2.0" height="25.2" style="fill:#FF4500;stroke:#000000;stroke-width:0.0;" />
<rect x="226.0" y="463.4" width="2.0" height="25.2" style="fill:#FF4300;stroke:#000000;stroke-width:0.0;" />
<rect x="227.0" y="463.4" width="2.0" height="25.2" style="fill:#FF4100;stroke:#000000;stroke-width:0.0;" />
<rect x="228.0" y="463.4" width="2.0" height="25.2" style="fill:#FF3F00;stroke:#000000;stroke-width:0.0;" />
<rect x="229.0" y="463.4" width="2.0" height="25.2" style="fill:#FF3D00;stroke:#000000;stroke-width:0.0;" />
<rect x="230.0" y="463.4" width="2.0" height="25.2" style="fill:#FF3C00;stroke:#000000;stroke-width:0.0;" />
<rect x="231.0" y="463.4" width="2.0" height="25.2" style="fill:#FF3A00;stroke:#000000;stroke-width:0.0;" />
<rect x="232.0" y="463.4" width="2.0" height="25.2" style="fill:#FF3800;stroke:#000000;stroke-width:0.0;" />
<rect x="233.0" y="463.4" width="2.0" height="25.2" style="fill:#FF3600;stroke:#000000;stroke-width:0.0;" />
<rect x="234.0" y="463.4" width="2.0" height="25.2" style="fill:#FF3400;stroke:#000000;stroke-width:0.0;" />
<rect x="235.0" y="463.4" width="2.0" height="25.2" style="fill:#FF3200;stroke:#000000;stroke-width:0.0;" />
<rect x="236.0" y="463.4" width="2.0" height="25.2" style="fill:#FF3000;stroke:#000000;stroke-width:0.0;" />
<rect x="237.0" y="463.4" width="2.0" height="25.2" style="fill:#FF2E00;stroke:#000000;stroke-width:0.0;" />
<rect x="238.0" y="463.4" width="2.0" height="25.2" style="fill:#FF2C00;stroke:#000000;stroke-width:0.0;" />
<rect x="239.0" y="463.4" width="2.0" height="25.2" style="fill:#FF2A00;stroke:#000000;stroke-width:0.0;" />
<rect x="240.0" y="463.4" width="2.0" height="25.2" style="fill:#FF2800;stroke:#000000;stroke-width:0.0;" />
<rect x="241.0" y="463.4" width="2.0" height="25.2" style="fill:#FF2600;stroke:#000000;stroke-width:0.0;" />
<rect x="242.0" y="463.4" width="2.0" height="25.2" style="fill:#FF2400;stroke:#000000;stroke-width:0.0;" />
<rect x="243.0" y="463.4" width="2.0" height="25.2" style="fill:#FF2200;stroke:#000000;stroke-width:0.0;" />
<rect x="244.0" y="463.4" width="2.0" height="25.2" style="fill:#FF2000;stroke:#000000;stroke-width:0.0;" />
<rect x="245.0" y="463.4" width="2.0" height="25.2" style="fill:#FF1E00;stroke:#000000;stroke-width:0.0;" />
<rect x="246.0" y="463.4" width="2.0" height="25.2" style="fill:#FF1C00;stroke:#000000;stroke-width:0.0;" />
<rect x="247.0" y="463.4" width="2.0" height="25.2" style="fill:#FF1A00;stroke:#000000;stroke-width:0.0;" />
<rect x="248.0" y="463.4" width="2.0" height="25.2" style="fill:#FF1800;stroke:#000000;stroke-width:0.0;" />
<rect x="249.0" y="463.4" width="2.0" height="25.2" style="fill:#FF1600;stroke:#000000;stroke-width:0.0;" />
<rect x="250.0" y="463.4" width="2.0" height="25.2" style="fill:#FF1500;stroke:#000000;stroke-width:0.0;" />
<rect x="251.0" y="463.4" width="2.0" height="25.2" style="fill:#FF1300;stroke:#000000;stroke-width:0.0;" />
<rect x="252.0" y="463.4" width="2.0" height="25.2" style="fill:#FF1100;stroke:#000000;stroke-width:0.0;" />
<rect x="253.0" y="463.4" width="2.0" height="25.2" style="fill:#FF0F00;stroke:#000000;stroke-width:0.0;" />
<rect x="254.0" y="463.4" width="2.0" height="25.2" style="fill:#FF0D00;stroke:#000000;stroke-width:0.0;" />
<rect x="255.0" y="463.4" width="2.0" height="25.2" style="fill:#FF0B00;stroke:#000000;stroke-width:0.0;" />
<rect x="256.0" y="463.4" width="2.0" height="25.2" style="fill:#FF0900;stroke:#000000;stroke-width:0.0;" />
<rect x="257.0" y="463.4" width="2.0" height="25.2" style="fill:#FF0700;stroke:#000000;stroke-width:0.0;" />
<rect x="258.0" y="463.4" width="2.0" height="25.2" style="fill:#FF0500;stroke:#000000;stroke-width:0.0;" />
<rect x="259.0" y="463.4" width="2.0" height="25.2" style="fill:#FF0300;stroke:#000000;stroke-width:0.0;" />
<rect x="260.0" y="463.4" width="2.0" height="25.2" style="fill:#FF0100;stroke:#000000;stroke-width:0.0;" />
<text x="60.2" y="508.8" text-anchor="middle" alignment-baseline="middle" style="font-size:20.0;fill:#000000;stroke:#000000;stroke-width:0.0;">0</text>
<text x="261.8" y="508.8" text-anchor="middle" alignment-baseline="middle" style="font-size:20.0;fill:#000000;stroke:#000000;stroke-width:0.0;">40+</text>
</svg>